<svg width="332" height="258" viewBox="0 0 332 258" fill="none" xmlns="http://www.w3.org/2000/svg">
<g clip-path="url(#clip0_2487_3801)">
<path d="M189.176 317.929C189.176 317.929 165.105 302.962 144.064 313.198C111.755 328.924 68.5978 326.589 52.8149 302.962C37.0406 279.326 48.8543 262.041 44.1254 238.379C39.388 214.718 6.53323 203.484 6.01254 174.445C5.48332 145.414 21.7015 126.116 54.6758 112.325C95.7591 95.142 82.9638 74.0719 104.645 47.4616C134.282 11.0748 186.308 32.5029 189.509 56.6584C192.71 80.814 204.037 90.2325 233.076 82.7233C277.301 71.3018 300.356 102.728 280.63 135.603C260.442 169.254 280.212 190.903 291.735 205.291C324.863 246.681 305.785 274.587 272.649 278.789C239.512 282.991 246 301.896 237.763 316.599C229.525 331.302 204.498 331.831 189.176 317.912V317.929Z" fill="#DFF3FC"/>
<mask id="mask0_2487_3801" style="mask-type:luminance" maskUnits="userSpaceOnUse" x="-39" y="17" width="411" height="314">
<path d="M192.062 320.291C192.062 320.291 166.441 304.381 144.046 315.263C109.657 331.979 63.7206 329.497 46.9215 304.381C30.1315 279.256 -32.513 289.53 -37.5463 264.387C-42.5888 239.235 -32.8491 213.34 -33.4124 182.47C-33.9757 151.61 12.7692 118.983 50.2741 112.595C87.779 106.207 75.5045 76.271 109.075 39.3219C142.646 2.37275 189.001 16.8878 192.408 42.5656C195.815 68.2433 207.599 77.1499 238.78 70.2729C274.323 62.4355 299.235 94.3379 278.247 129.285C256.76 165.056 274.704 150.341 310.501 161.25C385.892 184.237 383.585 294.314 348.324 298.781C313.063 303.248 295.955 314.982 275.122 323.598C272.705 324.595 240.842 323.118 238.898 324.749C227.469 334.353 206 332.913 192.062 320.273V320.291Z" fill="white"/>
</mask>
<g mask="url(#mask0_2487_3801)">
<path d="M162.089 331.904L164.905 295.554C166.2 302.245 169.668 322.856 171.18 331.904H213.981C214.151 317.843 214.246 273.463 209.142 257.546C203.037 238.527 116.076 235.069 112.078 252.532C108.062 270.071 114.677 319.822 116.378 331.904H162.099H162.089Z" fill="#17C1AD"/>
<path d="M141.857 275.442C165.521 273.473 190.479 279.872 211.005 266.791C210.41 262.71 209.691 259.157 208.822 256.443C202.717 237.425 115.755 233.966 111.758 251.429C109.792 260.024 110.378 276.356 111.682 292.199C118.552 282.906 130.195 276.639 141.847 275.442H141.857Z" fill="#0FB29A"/>
<path d="M138.322 55.5917C138.322 55.5917 131.584 44.2259 133.03 40.1829C137.414 27.9784 172.919 20.8065 185.554 39.1462C188.2 42.3976 181.302 53.8482 181.302 53.8482C181.302 53.8482 172.107 36.0927 159.169 36.4603C146.232 36.8278 138.463 54.1592 138.322 55.6011V55.5917Z" fill="#29CABB"/>
<path d="M133.03 42.5389C137.415 30.3344 172.92 23.1625 185.555 41.5022C185.791 41.7944 185.952 42.1525 186.046 42.5578C186.273 41.1347 186.178 39.9095 185.555 39.1367C172.91 20.797 137.405 27.9689 133.03 40.1734C132.775 40.8802 132.775 41.8038 132.945 42.8499C132.973 42.7463 133.001 42.6332 133.03 42.5389Z" fill="#21C1AD"/>
<path d="M160.937 37.6759C160.937 37.6759 154.322 33.6894 148.236 37.3744C142.15 41.0593 138.02 44.6311 137.916 51.7842C137.812 58.9372 132.161 62.9426 131.613 66.3071C131.074 69.6621 133.134 73.5638 132.369 76.9283C131.613 80.2833 125.196 88.9537 129.439 97.2942C133.682 105.635 148.141 110.743 154.662 107.171C161.183 103.703 162.402 107.388 176.747 107.491C191.093 107.595 195.61 95.5602 191.915 88.5108C188.22 81.4708 185.508 79.6236 187.464 73.0172C189.42 66.4107 183.23 60.9917 182.248 57.1937C181.274 53.4051 181.766 46.2427 177.466 41.2666C171.899 34.8204 160.937 37.6665 160.937 37.6665V37.6759Z" fill="#6B311C"/>
<path d="M129.712 85.6835L129.627 85.6458C129.655 85.5799 132.661 79.2844 130.95 73.545C130.081 70.6234 129.92 68.2768 130.449 66.1375C130.95 64.1301 132.084 62.2452 134.021 60.2001C137.641 56.3833 139.871 47.7977 139.899 47.7035L139.985 47.7223C139.966 47.8071 137.726 56.421 134.088 60.2567C130.251 64.2903 129.4 68.0035 131.035 73.5073C132.755 79.2844 129.74 85.6081 129.703 85.6741L129.712 85.6835Z" fill="#6B311C"/>
<path d="M144.759 40.1451L144.664 40.1263C144.825 39.2404 149.134 34.9995 154.445 34.9995C159.709 34.9995 161.76 38.7315 161.779 38.7692L161.694 38.8163C161.694 38.8163 159.643 35.0937 154.445 35.0937C149.181 35.0937 144.91 39.2687 144.749 40.1451H144.759Z" fill="#6B311C"/>
<path d="M175.376 40.7672C173.344 36.9315 169.148 35.7252 165.907 35.8571C162.419 36.0079 160.331 38.2132 160.302 38.2321L160.236 38.1661C160.236 38.1661 162.372 35.9137 165.897 35.7629C169.176 35.6215 173.41 36.8467 175.451 40.7201L175.366 40.7672H175.376Z" fill="#6B311C"/>
<path d="M177.825 43.0101C177.825 43.0101 176.785 41.031 174.81 39.2498C172.986 37.61 169.962 35.8099 165.908 36.4979C161.259 37.2047 160.616 38.2885 160.607 38.298L160.521 38.2508C160.521 38.2508 161.164 37.1199 165.889 36.4037C169.981 35.7063 173.034 37.5346 174.867 39.1839C176.852 40.9745 177.891 42.9442 177.901 42.963L177.816 43.0007L177.825 43.0101Z" fill="#6B311C"/>
<path d="M176.51 38.0906C176.51 38.0906 173.996 36.1869 170.821 35.2162C167.9 34.3209 163.78 34.0476 160.775 37.8173L160.699 37.7608C163.742 33.9533 167.9 34.2361 170.849 35.1314C174.034 36.1021 176.538 38.0058 176.566 38.0246L176.51 38.1V38.0906Z" fill="#6B311C"/>
<path d="M186.17 77.4372L186.085 77.4089C188.636 70.3689 188.636 65.1007 186.085 61.7363C183.268 58.0231 182.588 56.6848 181.718 50.9548C180.877 45.4133 178.694 43.0384 178.666 43.0195L178.732 42.9536C178.732 42.9536 180.953 45.3662 181.804 50.936C182.673 56.6377 183.353 57.9759 186.16 61.6703C188.731 65.063 188.731 70.3595 186.16 77.4278L186.17 77.4372Z" fill="#6B311C"/>
<path d="M187.058 78.9074L186.973 78.8792C188.731 73.9502 190.923 64.9877 185.791 60.2378C181.246 56.0252 180.254 48.6648 180.244 48.5894H180.339C180.348 48.6553 181.331 55.9875 185.858 60.1719C191.018 64.95 188.825 73.9597 187.058 78.9074Z" fill="#6B311C"/>
<path d="M131.545 82.941L131.46 82.9127C132.623 79.0676 132.519 78.0781 131.234 72.0842C129.929 66.0526 131.149 64.1866 134.692 60.7561C138.161 57.4011 138.718 48.6647 138.728 48.5799H138.822C138.822 48.6742 138.255 57.4388 134.759 60.8221C131.243 64.2243 130.043 66.0715 131.328 72.0653C132.623 78.0875 132.717 79.077 131.555 82.941H131.545Z" fill="#6B311C"/>
<path d="M129.693 79.7462L129.637 79.6802C133.7 76.2309 132.084 69.4925 132.075 69.4266L132.16 69.4077C132.179 69.4737 133.804 76.2686 129.693 79.7556V79.7462Z" fill="#6B311C"/>
<path d="M136.226 105.154C136.226 105.154 134.307 104.174 132.294 102.289C130.442 100.546 128.108 97.6335 127.56 93.6753C126.501 86.117 131.123 80.7546 131.17 80.7074L131.236 80.764C131.189 80.8205 126.596 86.1453 127.645 93.6659C128.703 101.187 136.188 105.041 136.264 105.079L136.226 105.164V105.154Z" fill="#6B311C"/>
<path d="M135.469 106.153C135.223 106.068 129.421 104.07 127.398 97.1718C125.593 91.0177 130.243 82.9882 130.29 82.9033L130.366 82.9505C130.319 83.0259 125.688 91.0271 127.484 97.1435C129.487 103.995 135.252 105.984 135.497 106.068L135.469 106.153Z" fill="#6B311C"/>
<path d="M189.316 104.212L189.269 104.136C192.529 102.299 195.062 96.8984 193.635 91.781C192.18 86.5599 187.823 82.0833 187.785 82.0362L187.851 81.9703C187.851 81.9703 192.265 86.5128 193.729 91.7527C195.175 96.9078 192.614 102.365 189.326 104.212H189.316Z" fill="#6B311C"/>
<path d="M194.513 99.7163L194.428 99.6881C195.922 94.8534 194.372 90.8575 192.803 88.3506C191.102 85.6364 189.032 84.0437 189.004 84.0248L189.061 83.9494C189.061 83.9494 191.168 85.5704 192.879 88.3035C194.457 90.8292 196.016 94.8534 194.513 99.7163Z" fill="#6B311C"/>
<path d="M139.541 71.17C139.541 71.17 140.231 75.4581 138.398 79.3032C136.564 83.1483 139.437 86.5788 139.947 89.4061C140.458 92.2334 135.411 98.4817 142.093 104.589C146.695 108.792 155.739 109.621 163.564 109.621C171.389 109.621 177.579 107.793 180.905 104.428C184.222 101.073 183.381 95.0984 181.623 92.9779C179.866 90.8574 182.795 87.672 182.672 84.185C182.54 80.698 183.079 74.723 181.623 73.5921C180.168 72.4611 173.666 75.9858 164.868 75.2507C156.07 74.5157 139.541 71.1606 139.541 71.1606V71.17Z" fill="#592616"/>
<path d="M149.729 86.6731C149.729 86.6731 149.484 99.1038 149.077 101.545C148.671 103.986 143.899 105.437 138.852 107.633C137.539 124.879 151.808 144.868 162.516 144.868C173.223 144.868 187.294 122.08 183.684 110.102C178.685 108.622 171.89 103.986 171.408 102.365C170.917 100.744 171.569 86.6825 171.569 86.6825H149.729V86.6731Z" fill="#E4AD8F"/>
<path d="M185.443 115.153C185.443 115.153 175.086 114.371 171.57 115.153C168.055 115.936 169.283 118.49 173.073 118.49C176.863 118.49 184.773 116.755 187.343 117.123C189.904 117.491 185.443 115.153 185.443 115.153Z" fill="#EAA27D"/>
<path d="M136.443 115.153C136.443 115.153 146.8 114.371 150.316 115.153C153.831 115.936 152.603 118.49 148.813 118.49C145.024 118.49 137.114 116.755 134.543 117.123C131.982 117.491 136.443 115.153 136.443 115.153Z" fill="#EAA27D"/>
<path d="M163.989 98.3781C166.72 97.4734 169.442 96.5592 171.285 94.5519C171.389 90.6031 171.568 86.6731 171.568 86.6731H149.729C149.729 86.6731 149.625 92.0544 149.436 96.4273C153.726 99.2075 158.706 100.131 163.989 98.3687V98.3781Z" fill="#F28F64"/>
<path d="M144.192 70.0486C144.192 70.0486 140.402 65.7416 139.117 69.3983C137.832 73.0549 140.336 79.3315 142.633 80.2834C144.929 81.2352 145.411 77.277 145.411 77.277L144.192 70.0486Z" fill="#EAA481"/>
<path d="M143.246 74.167C143.246 74.167 142.868 70.5104 142.14 69.6716C141.422 68.8328 139.957 69.4266 139.938 71.6036C139.919 73.79 140.382 75.9105 141.082 77.1922C141.781 78.4739 142.509 77.5315 143.047 77.6257C143.576 77.72 141.507 74.6288 143.246 74.1576V74.167Z" fill="#F28F64"/>
<path d="M178.04 70.0486C178.04 70.0486 182.085 65.7416 183.455 69.3983C184.825 73.0549 182.151 79.3315 179.694 80.2834C177.237 81.2352 176.727 77.277 176.727 77.277L178.031 70.0486H178.04Z" fill="#EAA481"/>
<path d="M179.131 74.167C179.131 74.167 179.537 70.5104 180.303 69.6716C181.068 68.8328 182.627 69.4266 182.656 71.6036C182.675 73.79 182.183 75.9105 181.437 77.1922C180.69 78.4739 179.906 77.5315 179.339 77.6257C178.772 77.72 180.983 74.6288 179.131 74.1576V74.167Z" fill="#F28F64"/>
<path d="M143.644 79.2656C143.644 80.029 143.02 80.651 142.254 80.651C141.489 80.651 140.865 80.029 140.865 79.2656C140.865 78.5022 141.489 77.8802 142.254 77.8802C143.02 77.8802 143.644 78.5022 143.644 79.2656Z" fill="#EFEFEF"/>
<path d="M143.408 78.9545C143.408 79.52 142.945 79.9818 142.378 79.9818C141.811 79.9818 141.348 79.52 141.348 78.9545C141.348 78.3891 141.811 77.9273 142.378 77.9273C142.945 77.9273 143.408 78.3891 143.408 78.9545Z" fill="white"/>
<path d="M180.829 79.2656C180.829 80.029 180.205 80.651 179.44 80.651C178.675 80.651 178.051 80.029 178.051 79.2656C178.051 78.5022 178.675 77.8802 179.44 77.8802C180.205 77.8802 180.829 78.5022 180.829 79.2656Z" fill="#EFEFEF"/>
<path d="M180.584 78.9545C180.584 79.52 180.121 79.9818 179.554 79.9818C178.986 79.9818 178.523 79.52 178.523 78.9545C178.523 78.3891 178.986 77.9273 179.554 77.9273C180.121 77.9273 180.584 78.3891 180.584 78.9545Z" fill="white"/>
<path d="M142.964 64.4128C142.964 64.4128 142.312 75.2225 146.716 83.8364C151.119 92.4502 157.801 95.0513 161.949 95.0513C166.098 95.0513 171.806 91.3947 175.804 84.4018C179.801 77.409 179.149 65.0631 178.327 60.1813C177.514 55.3089 171.249 41.0028 160.938 42.6238C150.628 44.2448 142.444 55.554 142.964 64.4034V64.4128Z" fill="#EAA481"/>
<path d="M166.549 52.802C166.549 52.802 166.057 55.1581 162.315 55.6482C158.563 56.1383 160.444 59.1446 157.023 59.9551C153.602 60.7656 147.242 63.772 145.937 68.1637C144.633 72.5554 146.183 93.6848 162.069 94.2502C170.14 94.0052 174.704 83.9494 175.432 78.3702C176.169 72.791 176.405 68.8517 175.026 65.1291C173.636 61.4159 174.865 59.6253 173.967 58.0043C173.069 56.3833 168.098 56.4116 166.549 52.802Z" fill="#E4AD8F"/>
<path d="M142.945 68.7386C142.945 68.7386 144.117 71.7827 144.117 75.2508C144.873 72.2162 145.261 69.2381 144.826 67.1742C144.335 65.4966 142.955 68.7386 142.955 68.7386H142.945Z" fill="#592616"/>
<path d="M178.929 69.1156C178.929 69.1156 178.268 72.1408 178.173 75.9106C177.465 74.7231 176.869 69.3512 177.304 67.2402C178.334 67.1836 178.929 69.1156 178.929 69.1156Z" fill="#592616"/>
<path d="M164.839 46.2238C164.839 46.2238 166.143 53.2355 162.316 54.7057C158.488 56.1665 157.978 55.912 156.154 57.778C153.886 60.1153 150.815 60.0116 148.944 62.3677C147.072 64.7238 145.494 68.9741 142.943 68.748C141.289 61.9342 143.084 48.0993 150.002 43.4625C156.92 38.8257 162.798 39.2404 167.684 41.2666C172.569 43.2929 176.983 48.8249 178.929 54.4324C180.886 60.0399 178.929 69.1721 178.929 69.1721C178.929 69.1721 176.321 67.1929 175.584 63.2913C174.847 59.3896 175.745 57.6838 172.569 55.3277C169.394 52.9716 166.134 50.0501 164.83 46.2238H164.839Z" fill="#6B311C"/>
<path d="M144.209 66.439V66.3448C147.592 66.0432 149.804 63.3667 151.76 60.9918C152.667 59.8891 153.527 58.8524 154.378 58.2493C155.54 57.4294 156.655 57.0995 157.836 56.7508C159.329 56.3079 161.021 55.8084 163.251 54.2345C167.202 51.4449 164.385 45.9599 164.357 45.9034L164.442 45.8657C164.47 45.9222 167.324 51.4732 163.308 54.3193C161.068 55.9026 159.367 56.4115 157.865 56.8545C156.636 57.2126 155.578 57.533 154.434 58.3435C153.593 58.9372 152.733 59.9739 151.835 61.0671C149.964 63.329 147.639 66.1469 144.218 66.4484L144.209 66.439Z" fill="#6B311C"/>
<path d="M146.099 64.4976L146.08 64.4033C147.8 64.0923 149 62.8954 150.267 61.6326C151.684 60.2284 153.139 58.777 155.464 58.4C159.471 57.7498 160.964 56.157 163.025 53.9423C163.214 53.7444 163.403 53.5371 163.601 53.3297C165.964 50.8323 164.225 46.761 164.206 46.7139L164.291 46.6762C164.291 46.6762 166.068 50.8417 163.667 53.3863C163.469 53.5936 163.28 53.801 163.091 53.9989C161.021 56.223 159.518 57.8251 155.483 58.4848C153.187 58.8524 151.741 60.3037 150.333 61.6985C149.057 62.9708 147.847 64.1677 146.099 64.4881V64.4976Z" fill="#6B311C"/>
<path d="M159.548 58.3906L159.52 58.3058C162.61 57.4294 164.585 55.8932 165.398 53.7633C166.872 49.8711 163.933 45.2343 163.904 45.1966L163.98 45.1495C163.98 45.1495 166.976 49.8711 165.483 53.801C164.661 55.9686 162.666 57.5142 159.548 58.4001V58.3906Z" fill="#6B311C"/>
<path d="M176.012 58.2399C170.776 56.7603 167.903 53.1507 166.42 50.3894C164.813 47.4019 164.435 44.7254 164.426 44.6971H164.52C164.52 44.6971 164.898 47.3736 166.505 50.3517C167.979 53.0942 170.833 56.6754 176.04 58.1551L176.012 58.2399Z" fill="#6B311C"/>
<path d="M213.262 126.99C213.262 126.99 216.267 129.224 218.715 141.739C221.163 154.255 226.058 174.696 226.975 175.158C214.888 180.954 204.341 183.772 197.83 182.057C194.38 165.847 204.889 129.177 213.253 126.99H213.262Z" fill="#29CABB"/>
<path d="M140.534 106.841C140.534 106.841 138.701 107.246 130.847 109.791C122.994 112.335 109.735 116.812 108.913 117.114C111.569 135.123 111.616 149.976 110.236 156.535C108.856 163.095 110.236 173.32 112.221 176.223C114.205 179.126 121.709 191.255 122.928 197.814C124.157 204.373 122.796 211.357 122.796 211.357C122.796 211.357 120.679 221.931 115.784 232.307C110.888 242.683 107.014 259.308 107.014 259.308C128.438 273.953 198.672 276.017 216.108 260.147C206.62 242.448 197.132 214.976 197.444 194.223C197.746 173.471 198.767 175.61 200.61 168.891C202.443 162.181 203.265 153.633 205.505 146.715C207.745 139.798 213.254 126.981 213.254 126.981C213.254 126.981 197.746 113.956 183.675 110.092C183.155 117.114 171.89 134.077 162.912 138.752C146.998 133.257 139.806 110.29 140.524 106.832L140.534 106.841Z" fill="#29CABB"/>
<path d="M110.085 168.712C110.539 172.048 111.314 174.894 112.221 176.223C114.205 179.126 121.709 191.255 122.928 197.814C124.157 204.374 122.796 211.357 122.796 211.357C122.796 211.357 120.679 221.931 115.784 232.307C110.888 242.683 107.014 259.308 107.014 259.308C110.094 261.41 114.186 263.257 118.978 264.831C120.112 247.452 125.706 230.978 130.469 214.081C136.518 195.383 116.851 184.865 110.066 168.712H110.085Z" fill="#21C1AD"/>
<path d="M126.46 257.979C131.167 257.979 135.249 257.046 136.327 254.077C139.048 246.5 141.789 222.817 141.817 222.572L141.212 222.506C141.184 222.742 138.453 246.359 135.75 253.87C133.132 261.155 109.289 254.822 109.043 254.756L108.883 255.34C109.507 255.51 118.806 257.979 126.46 257.979Z" fill="#21C1AD"/>
<path d="M142.497 219.537C142.497 219.537 127.556 218.18 122.632 215.654C120.591 218.566 121.602 220.15 121.602 220.15C121.602 220.15 132.064 223.524 142.166 223.524C142.317 222.223 142.497 219.528 142.497 219.528V219.537Z" fill="#A4EAE2"/>
<path d="M147.724 141.353H125.686V145.754H147.724V141.353Z" fill="#21C1AD"/>
<path d="M148.187 140.467H126.148V144.868H148.187V140.467Z" fill="#A4EAE2"/>
<path d="M210.457 128.592C210.457 128.592 192.208 150.956 197.264 171.172L200.251 172.133C200.251 172.133 194.335 156.064 210.447 128.592H210.457Z" fill="#21C1AD"/>
<path d="M205.837 236.623C202.226 226.436 199.363 215.56 198.116 205.448L167.043 211.168C167.043 211.168 185.755 212.262 205.827 236.623H205.837Z" fill="#21C1AD"/>
<path d="M196.015 257.979C191.309 257.979 187.226 257.046 186.149 254.077C183.427 246.5 180.687 222.817 180.658 222.572L181.263 222.506C181.291 222.742 184.023 246.359 186.725 253.87C189.343 261.155 213.196 254.822 213.432 254.756L213.593 255.34C212.969 255.51 203.67 257.979 196.015 257.979Z" fill="#21C1AD"/>
<path d="M179.98 219.537C179.98 219.537 194.921 218.18 199.845 215.654C201.886 218.566 200.875 220.15 200.875 220.15C200.875 220.15 190.414 223.524 180.311 223.524C180.16 222.223 179.98 219.528 179.98 219.528V219.537Z" fill="#A4EAE2"/>
<path d="M119.754 235.917C123.818 231.233 127.107 224.985 130.131 225.211C133.155 225.437 136.481 224.947 139.08 223.495C141.679 222.044 141.348 219.283 141.348 219.283C147.132 219.5 147.831 215.645 147.831 215.645C147.831 215.645 147.576 215.136 147.5 214.637C151.016 213.496 149.929 210.744 149.929 210.744L139.09 210.283C139.09 210.283 145.015 208.831 146.432 207.267C147.85 205.702 146.64 205.08 146.64 205.08C146.64 205.08 134.78 205.684 131.52 207.012C129.545 207.813 125.273 211.159 122.221 213.666C120.822 218.962 118.592 226.389 115.804 232.298C115.218 233.551 114.642 234.89 114.084 236.284C115.256 237.613 117.259 238.782 119.764 235.898L119.754 235.917Z" fill="#21C1AD"/>
<path d="M125.686 211.168C125.686 211.168 130.732 204.835 137.621 200.868C144.511 196.9 146.958 181.18 146.958 181.18C146.344 190.331 144.974 198.116 138.084 202.847C151.853 196.589 168.836 180.257 171.595 174.385C168.996 183.159 146.505 202.536 137.016 206.503C127.84 210.622 125.695 211.159 125.695 211.159L125.686 211.168Z" fill="#21C1AD"/>
<path d="M77.3586 150.382C77.3586 150.382 68.1824 161.474 63.7974 165.442C59.4125 169.409 53.799 176.119 56.7569 181.209C59.7149 186.298 67.9839 198.71 79.9386 207.889C93.8967 218.604 103.045 227.162 106.409 229.81C109.773 232.458 114.574 233.372 118.647 230.724C122.73 228.076 127.115 223.807 129.77 223.703C132.426 223.599 136.707 223.703 138.852 222.836C140.997 221.969 141.706 219.123 141.196 219.019C140.685 218.915 137.066 219.886 133.957 219.933C130.847 219.98 128.598 219.632 126.557 220.442C130.384 218.765 135.941 218.463 139.967 218.303C143.993 218.152 145.732 217.69 147.159 216.474C148.586 215.249 147.716 214.137 147.159 214.184C146.601 214.231 143.643 214.542 138.946 214.542C134.25 214.542 131.244 214.288 128.239 215.306C130.687 214.137 133.9 213.572 135.837 213.374C137.775 213.166 143.492 213.477 146.034 213.477C148.576 213.477 149.654 211.847 149.861 211.244C150.069 210.631 149.814 209.972 147.007 209.924C144.201 209.877 137.217 209.623 135.024 209.717C132.832 209.821 128.901 211.348 127.937 211.8C131.556 209.359 134.873 208.445 136.253 208.134C137.633 207.832 143.955 207.879 145.486 207.267C147.017 206.654 147.423 204.977 145.892 204.722C144.361 204.468 137.633 204.826 134.514 204.93C131.405 205.033 127.625 207.672 123.297 210.98C118.968 214.288 115.491 216.578 113.1 215.965C110.699 215.353 104.273 209.859 92.7721 196.353C88.3871 191.208 80.43 179.06 79.2014 178.447C85.3252 173.565 97.261 161.361 97.261 161.361L77.3681 150.372L77.3586 150.382Z" fill="#E4AD8F"/>
<path d="M125.781 209.133C124.977 209.717 124.146 210.339 123.295 210.989C118.958 214.297 115.489 216.587 113.098 215.975C112.049 215.711 110.235 214.505 107.561 212.12C109.97 216.003 109.526 221.724 113.287 222.798C117.049 223.872 118.277 218.51 120.819 214.599C122.785 211.564 124.93 209.783 125.781 209.133Z" fill="#EAA27D"/>
<path d="M81.6398 176.402C88.0282 170.804 97.2517 161.37 97.2517 161.37L77.3588 150.382C77.3588 150.382 76.8107 151.126 74.0039 154.359C79.986 160.786 81.1673 170.418 81.6492 176.393L81.6398 176.402Z" fill="#F28F64"/>
<path d="M108.913 117.123C108.913 117.123 105.445 119.46 100.654 126.076C95.8623 132.692 74.2305 152.219 74.2305 152.219C78.8233 160.258 91.5718 172.972 94.7377 174.395C100.247 169.202 109.745 164.857 109.745 164.857C109.745 164.857 109.943 159.853 111.673 153.746C113.402 147.639 111.465 119.875 108.923 117.123H108.913Z" fill="#29CABB"/>
<path d="M88.9629 169.73C91.5145 172.152 93.6692 173.914 94.7276 174.395C100.237 169.202 109.735 164.857 109.735 164.857C109.735 164.857 109.933 159.853 111.663 153.746C112.352 151.315 112.456 145.462 112.182 139.119C107.731 151.569 99.6134 162.69 88.9629 169.73Z" fill="#21C1AD"/>
<path d="M223.435 172.717C223.435 172.717 223.586 188.437 224.503 196.674C225.419 204.911 224.455 213.77 218.483 214.373C212.52 214.985 206.594 209.34 206.594 206.136C206.594 202.932 204.912 179.126 204.912 179.126L223.425 172.717H223.435Z" fill="#F28F64"/>
<path d="M166.209 210.094L214.812 145.754H249.75L250.591 146.819L204.917 210.094L167.05 211.168L166.209 210.094Z" fill="#6987CC"/>
<path d="M167.051 211.168L215.654 146.819H250.592L205.759 211.168H167.051Z" fill="#314488"/>
<path d="M189.365 176.374C189.365 176.374 185.084 174.894 183.704 179.069C180.132 179.116 180.699 182.575 180.699 182.575C178.147 182.17 178.043 185.572 178.043 185.732C176.059 185.223 175.898 186.854 176.106 188.833C176.314 190.812 178.478 197.833 179.981 198.653C181.493 199.463 190.943 198.549 193.901 196.825C196.859 195.091 196.963 184.215 196.708 183.96C195.895 185.186 194.818 185.195 194.818 185.195C194.818 185.195 193.438 183.15 192.068 180.813C190.688 178.475 189.365 176.383 189.365 176.383V176.374Z" fill="#E4AD8F"/>
<path d="M178.107 186.024C178.107 186.024 179.525 188.852 179.752 190.369C179.979 191.896 180.404 194.261 180.895 193.762C181.396 193.262 179.175 187.429 178.107 186.015V186.024Z" fill="#F28F64"/>
<path d="M180.969 183.009C180.969 183.009 182.5 186.552 183.19 189.191C183.879 191.83 185.259 191.057 184.456 189.417C183.653 187.777 180.969 183.009 180.969 183.009Z" fill="#F28F64"/>
<path d="M183.77 179.352C183.77 179.352 186.368 185.61 187.483 187.25C188.589 188.889 189.128 187.438 187.947 185.798C186.765 184.158 183.779 179.352 183.779 179.352H183.77Z" fill="#F28F64"/>
<path d="M202.321 191.377C202.321 191.377 203.238 193.517 210.278 195.75C217.319 197.984 223.783 202.121 223.509 208.039C223.235 213.958 219.662 216.7 210.486 215.277C201.31 213.854 196.509 203.883 193.041 202.969C189.573 202.055 180.595 199.558 179.98 198.643C182.05 199.02 182.428 197.192 182.428 197.192C185.679 198.493 186.823 195.741 186.908 195.477C191.075 195.364 192.105 193.074 192.105 192.348C195.47 191.848 196.008 190.209 195.933 188.955C195.857 187.692 194.827 185.176 194.827 185.176C194.827 185.176 196.547 184.187 195.592 183.272C194.638 182.358 193.372 182.207 191.538 181.444C189.705 180.681 188.174 177.703 188.401 175.761C188.628 173.82 189.28 173.358 190.735 174.197C192.19 175.035 194.676 176.487 195.819 176.788C196.963 177.09 199.184 179.804 200.563 181.171C201.943 182.547 201.867 186.929 201.745 188.305C201.622 189.681 202.17 191.132 202.321 191.368V191.377Z" fill="#EAA27D"/>
<path d="M189.752 173.801C189.752 173.801 189.96 174.546 189.422 175.413C188.883 176.28 191.359 177.316 192.096 177.571C192.833 177.825 193.778 177.75 193.911 177.015C194.033 176.28 194.213 176.129 194.213 176.129C194.213 176.129 191.34 173.905 189.752 173.81V173.801Z" fill="#EDB69A"/>
<path d="M166.741 66.3731C166.741 66.3731 171.542 64.705 172.553 64.6013C173.573 64.4883 175.341 65.3082 175.341 65.3082C173.016 64.0736 172.78 63.8286 170.899 63.7437C169.018 63.6589 166.476 65.1103 166.41 65.6663C166.344 66.2129 166.495 66.4674 166.741 66.3825V66.3731Z" fill="#6B311C"/>
<path d="M165.795 71.302C165.795 71.302 166.834 67.7113 169.244 67.0422C173.195 65.9489 173.979 69.6716 173.979 69.6716C172.675 71.3208 171.616 71.8863 169.518 71.8015C167.42 71.7166 165.795 71.302 165.795 71.302Z" fill="#F4BEA4"/>
<path d="M165.795 71.3019C165.795 71.3019 167.316 69.0307 169.443 68.8139C171.569 68.5971 173.979 69.6715 173.979 69.6715C173.979 71.5281 172.212 72.7438 170.114 72.659C168.016 72.5742 165.795 71.3113 165.795 71.3113V71.3019Z" fill="#EAA481"/>
<path d="M165.795 71.3019C165.795 71.3019 167.316 69.0307 169.443 68.8139C171.569 68.5971 173.979 69.6715 173.979 69.6715C172.675 71.3208 171.616 71.8862 169.518 71.8014C167.42 71.7166 165.795 71.3019 165.795 71.3019Z" fill="white"/>
<path d="M171.653 70.0392C171.653 70.8874 170.963 71.5754 170.113 71.5754C169.262 71.5754 168.572 70.8874 168.572 70.0392C168.572 69.191 169.262 68.503 170.113 68.503C170.963 68.503 171.653 69.191 171.653 70.0392Z" fill="#3C1E14"/>
<path d="M170.973 70.0391C170.973 70.5198 170.586 70.9062 170.104 70.9062C169.622 70.9062 169.234 70.5198 169.234 70.0391C169.234 69.5585 169.622 69.1721 170.104 69.1721C170.586 69.1721 170.973 69.5585 170.973 70.0391Z" fill="#28120D"/>
<path d="M169.771 69.6809C169.771 69.8317 169.649 69.9448 169.507 69.9448C169.365 69.9448 169.242 69.8223 169.242 69.6809C169.242 69.5396 169.365 69.417 169.507 69.417C169.649 69.417 169.771 69.5396 169.771 69.6809Z" fill="white"/>
<path d="M175.228 68.2956C175.228 68.2956 174.982 69.3794 173.971 69.6715C172.96 69.9637 170.786 68.6443 168.811 69.2851C166.836 69.926 165.787 71.3019 165.787 71.3019C165.787 71.3019 166.241 69.3699 168.395 68.4369C170.55 67.5134 172.922 69.0778 175.228 68.2862V68.2956Z" fill="#3C1E14"/>
<path d="M155.813 66.3731C155.813 66.3731 151.012 64.705 150.001 64.6013C148.98 64.4883 147.213 65.3082 147.213 65.3082C149.538 64.0736 149.774 63.8286 151.655 63.7437C153.535 63.6589 156.077 65.1103 156.143 65.6663C156.21 66.2129 156.058 66.4674 155.813 66.3825V66.3731Z" fill="#6B311C"/>
<path d="M156.758 71.302C156.758 71.302 155.832 67.636 153.148 67.0988C149.16 66.2977 148.574 69.6716 148.574 69.6716C148.999 71.0853 150.776 72.5837 152.884 72.4989C154.982 72.4141 156.758 71.302 156.758 71.302Z" fill="#F4BEA4"/>
<path d="M156.758 71.302L148.574 69.6716C148.574 71.5753 150.568 72.7345 152.666 72.6497C154.764 72.5649 156.758 71.302 156.758 71.302Z" fill="#EAA481"/>
<path d="M156.758 71.3019C156.758 71.3019 155.237 69.0307 153.11 68.8139C150.984 68.5971 148.574 69.6715 148.574 69.6715C149.878 71.3208 150.937 71.8862 153.035 71.8014C155.133 71.7166 156.758 71.3019 156.758 71.3019Z" fill="white"/>
<path d="M150.863 70.0392C150.863 70.8874 151.553 71.5754 152.404 71.5754C153.254 71.5754 153.944 70.8874 153.944 70.0392C153.944 69.191 153.254 68.503 152.404 68.503C151.553 68.503 150.863 69.191 150.863 70.0392Z" fill="#3C1E14"/>
<path d="M151.533 70.0391C151.533 70.5198 151.921 70.9062 152.403 70.9062C152.885 70.9062 153.272 70.5198 153.272 70.0391C153.272 69.5585 152.885 69.1721 152.403 69.1721C151.921 69.1721 151.533 69.5585 151.533 70.0391Z" fill="#28120D"/>
<path d="M152.016 69.6809C152.016 69.8317 151.893 69.9448 151.751 69.9448C151.609 69.9448 151.486 69.8223 151.486 69.6809C151.486 69.5396 151.609 69.417 151.751 69.417C151.893 69.417 152.016 69.5396 152.016 69.6809Z" fill="white"/>
<path d="M147.32 68.2956C147.32 68.2956 147.566 69.3794 148.577 69.6715C149.588 69.9637 151.762 68.6443 153.737 69.2851C155.712 69.926 156.761 71.3019 156.761 71.3019C156.761 71.3019 156.308 69.3699 154.153 68.4369C151.998 67.5134 149.626 69.0778 147.32 68.2862V68.2956Z" fill="#3C1E14"/>
<path d="M158.384 79.3221C158.384 79.3221 160.132 80.2551 162.022 80.1609C163.921 80.0666 164.375 79.3221 164.989 79.4823C165.604 79.6425 164.337 81.4803 161.54 81.3201C159.196 81.1881 158.109 80.2363 157.93 79.8687C157.75 79.5012 158.176 79.2184 158.384 79.3221Z" fill="#F28F64"/>
<path d="M162.145 83.6384C162.145 83.6384 159.659 83.6855 158.336 83.5913C157.013 83.4876 155.01 83.1107 155.01 83.1107C155.01 83.1107 156.985 84.4018 157.75 85.1086C158.516 85.8154 160.16 87.0406 162.305 86.6448C164.451 86.2395 165.594 85.0992 166.265 84.317C166.936 83.5348 168.061 82.9316 168.061 82.9316C168.061 82.9316 167.068 83.0635 166.133 83.186C165.197 83.3086 162.154 83.6384 162.154 83.6384H162.145Z" fill="#C13644"/>
<path d="M157.279 83.4217C157.279 83.4217 157.563 84.2887 157.96 84.5243C158.357 84.7693 159.358 85.0992 161.901 85.0709C164.329 85.0427 164.915 84.7317 165.293 84.562C165.671 84.3924 165.964 83.3274 165.964 83.3274L157.289 83.4122L157.279 83.4217Z" fill="#F9DEE3"/>
<path d="M158.547 85.6646C158.547 85.6646 158.745 86.5316 159.01 86.7672C159.275 87.0123 159.964 87.3421 161.694 87.3139C163.348 87.2856 163.745 86.9746 164 86.8049C164.255 86.6353 164.605 85.6834 164.605 85.6834L158.547 85.6646Z" fill="#F9DEE3"/>
<path d="M154.748 83.007C154.748 83.007 156.638 83.695 158.594 83.8835C160.551 84.0719 162.271 84.8259 168.281 82.8374C165.512 83.2238 163.669 82.6206 161.694 83.252C158.868 82.6677 157.904 83.5348 154.748 83.007Z" fill="#F45665"/>
<path d="M168.279 82.8374C168.279 82.8374 166.89 84.185 165.813 85.4102C164.735 86.6354 164.14 87.6626 161.645 87.6155C159.15 87.5684 158.054 86.183 157.232 85.2217C156.41 84.2604 155.172 83.1578 154.756 83.0164C156.561 83.5913 157.563 84.4489 158.668 85.316C159.783 86.183 162.987 86.5977 164.726 85.4102C166.465 84.2227 166.9 83.1295 168.289 82.8374H168.279Z" fill="#F96D76"/>
<path d="M110.377 121.581C110.377 121.581 113.345 143.04 111.511 149.854C109.678 156.668 108.553 163.689 109.678 169.796C110.803 175.903 112.901 176.921 114.46 180.389C116.01 183.857 130.11 192.97 130.289 201.641C129.883 192.075 121.567 181.604 116.822 176.129C112.078 170.663 112.23 159.872 114.224 150.391C116.208 140.91 111.445 123.023 110.387 121.59L110.377 121.581Z" fill="#21C1AD"/>
<path d="M79.1998 178.457C79.1998 178.457 74.8904 173.547 71.1387 172.406C75.1929 172.868 77.2341 174.819 79.1998 178.457Z" fill="#EAA27D"/>
</g>
<path d="M312.316 251.634H19V259H312.316V251.634Z" fill="#0B2D50"/>
</g>
<defs>
<clipPath id="clip0_2487_3801">
<rect width="332" height="258" fill="white"/>
</clipPath>
</defs>
</svg>
