<svg width="332" height="246" viewBox="0 0 332 246" fill="none" xmlns="http://www.w3.org/2000/svg">
<g clip-path="url(#clip0_2487_3649)">
<path d="M300.302 241.851C335.631 214.956 351.365 140.377 294 103.806C256.023 79.5992 232.403 93.4082 189.68 77.3945C137.523 57.8504 129.749 -1.19916 66.3065 27.8564C32.6959 43.2444 9.39608 86.6154 5.29704 135.908C1.27983 184.18 18.3678 217.302 53.2878 239.967C135.291 243.46 217.458 242.827 300.302 241.851Z" fill="#DFF3FC"/>
<path d="M155.161 29.7184C149.827 51.1693 169.638 72.4042 190.52 81.208C211.395 90.0192 235.334 88.969 257.704 84.7682C267.353 82.9583 277.277 80.411 284.768 74.2514C292.259 68.0917 296.611 57.396 292.505 48.7561C288.882 41.1365 280.052 37.2337 271.638 35.2301C263.224 33.2265 254.282 32.4072 246.791 28.1915C239.679 24.1918 234.635 17.5704 228.453 12.3268C217.026 2.65157 200.98 -2.14509 186.131 0.916132C171.274 3.97735 159.706 11.4852 155.168 29.7184H155.161Z" fill="#DFF3FC"/>
<path d="M177.709 193.319C176.273 171.153 185.959 148.212 202.273 135.088C202.779 157.366 193.19 179.912 177.709 193.319Z" fill="#A2C7EB"/>
<path d="M199.61 141.055C192.736 153.88 186.792 167.302 181.852 181.148C175.849 197.959 171.125 215.82 160.844 229.912" stroke="#6F8BBF" stroke-miterlimit="10" stroke-linecap="round"/>
<path d="M172.561 207.262C180.818 188.768 197.207 174.795 215.277 170.84C207.585 190.66 190.281 205.78 172.561 207.262Z" fill="#A2C7EB"/>
<path d="M210.844 174.914C198.502 185.789 185.952 196.358 173.193 206.614" stroke="#6F8BBF" stroke-miterlimit="10" stroke-linecap="round"/>
<path d="M167.689 223.372C178.722 206.874 199.076 198.264 215.918 202.972C203.532 219.261 183.133 227.893 167.689 223.372Z" fill="#A2C7EB"/>
<path d="M211.878 204.163C197.416 213.22 181.816 219.909 165.732 223.931" stroke="#6F8BBF" stroke-miterlimit="10" stroke-linecap="round"/>
<path d="M173.647 201.653C177.174 183.077 171.884 162.371 160.108 148.674C155.28 166.93 159.885 188.321 173.647 201.653Z" fill="#A2C7EB"/>
<path d="M161.32 153.411C163.641 170.691 167.77 186.876 174.168 202.696" stroke="#6F8BBF" stroke-miterlimit="10" stroke-linecap="round"/>
<path d="M167.592 217.473C166.089 198.376 156.314 180.441 142.016 170.542C142.841 180.657 145.527 190.406 149.79 199.27C154.692 209.452 161.893 215.909 167.592 217.473Z" fill="#A2C7EB"/>
<path d="M144.137 174.408C149.761 190.332 157.855 205.094 167.95 217.875" stroke="#6F8BBF" stroke-miterlimit="10" stroke-linecap="round"/>
<path d="M278.014 212.893C285.817 192.566 303.768 176.076 323.564 171.056C314.89 191.107 297.185 207.269 278.014 212.893Z" fill="#A2C7EB"/>
<path d="M318.766 175.279C307.444 183.897 296.687 193.423 286.658 203.739C274.473 216.267 262.979 230.24 248.123 238.596" stroke="#6F8BBF" stroke-miterlimit="10" stroke-linecap="round"/>
<path d="M267.754 223.208C282.625 210.107 302.83 204.357 320.417 208.215C305.508 222.732 284.024 229.13 267.754 223.208Z" fill="#A2C7EB"/>
<path d="M314.83 210.04C299.468 214.688 284.046 218.97 268.572 222.896" stroke="#6F8BBF" stroke-miterlimit="10" stroke-linecap="round"/>
<path d="M256.848 235.572C273.355 225.383 294.87 226.031 307.829 237.107C290.213 246.551 268.646 245.903 256.848 235.572Z" fill="#A2C7EB"/>
<path d="M303.774 236.511C287.289 238.671 270.752 238.254 254.898 235.267" stroke="#6F8BBF" stroke-miterlimit="10" stroke-linecap="round"/>
<path d="M271.012 218.658C281.732 203.553 285.533 182.943 280.735 165.932C268.989 180.217 264.302 201.154 271.012 218.658Z" fill="#A2C7EB"/>
<path d="M279.866 170.639C274.837 186.98 271.869 203.083 271.051 219.797" stroke="#6F8BBF" stroke-miterlimit="10" stroke-linecap="round"/>
<path d="M259.185 230.277C265.672 212.654 264.378 192.678 255.793 178.02C252.385 187.368 250.764 197.147 250.905 206.785C251.061 217.853 254.781 226.553 259.185 230.277Z" fill="#A2C7EB"/>
<path d="M256.074 182.325C254.527 198.808 255.636 215.269 259.325 230.776" stroke="#6F8BBF" stroke-miterlimit="10" stroke-linecap="round"/>
<path d="M56.8438 177.357C48.8912 152.994 26.685 133.308 0.863281 127.722C11.7246 148.801 31.4164 165.574 56.8438 177.357Z" fill="#A2C7EB"/>
<path d="M58.19 181.133C40.7672 171.265 18.933 169.09 0 175.331C17.5567 184.113 38.3569 186.556 58.19 181.133Z" fill="#A2C7EB"/>
<path d="M63.0111 186.422C44.1749 183.807 24.4534 188.455 9.1582 199.113C26.4992 205.43 47.3142 201.333 63.0111 186.422Z" fill="#A2C7EB"/>
<path d="M68.8794 197.959C50.2291 197.884 31.8913 206.755 20.9258 221.168C29.228 222.836 38.0436 221.838 45.6539 218.382C53.2718 214.926 59.6472 209.034 68.8719 197.959H68.8794Z" fill="#A2C7EB"/>
<path d="M82.0324 217.272C63.6425 214.114 44.0474 219.819 30.7832 232.198C38.6986 235.208 47.5588 235.692 55.6601 233.554C63.7615 231.416 71.052 226.664 82.0324 217.28V217.272Z" fill="#A2C7EB"/>
<path d="M62.1779 178.512C50.0371 162.126 46.7414 140.042 53.6377 121.25C58.9047 130.18 63.4501 139.624 65.5703 149.665C67.6904 159.705 67.2813 170.408 62.1779 178.512Z" fill="#A2C7EB"/>
<path d="M69.5948 194.324C66.7158 176.91 72.6672 158.461 85.2247 145.851C86.6679 163.861 81.1629 182.213 69.5948 194.324Z" fill="#A2C7EB"/>
<path d="M6.50977 132.087C43.4681 155.765 72.3771 191.054 87.6351 231.156" stroke="#6F8BBF" stroke-miterlimit="10" stroke-linecap="round"/>
<path d="M54.7832 129.89C59.2765 148.168 62.0142 166.825 62.9366 185.543" stroke="#6F8BBF" stroke-miterlimit="10" stroke-linecap="round"/>
<path d="M82.4639 152.92C80.9909 167.667 76.4381 182.079 69.1699 195.062" stroke="#6F8BBF" stroke-miterlimit="10" stroke-linecap="round"/>
<path d="M7.78125 175.756C24.7279 178.981 41.9498 180.731 59.1792 180.984" stroke="#6F8BBF" stroke-miterlimit="10" stroke-linecap="round"/>
<path d="M17.9883 197.661C33.6108 196.521 48.9877 192.738 63.1968 186.511" stroke="#6F8BBF" stroke-miterlimit="10" stroke-linecap="round"/>
<path d="M27.3535 218.538C41.7708 211.336 56.1882 204.126 70.6055 196.931" stroke="#6F8BBF" stroke-miterlimit="10" stroke-linecap="round"/>
<path d="M36.7285 231.253C55.5499 227.618 61.1442 223.275 82.0337 217.272" stroke="#6F8BBF" stroke-miterlimit="10" stroke-linecap="round"/>
<path d="M155.897 196.73C155.897 196.73 157.526 211.679 159.349 212.878C162.607 215.03 200.325 220.006 200.325 220.006L199.09 229.83C199.09 229.83 147.431 234.478 145.237 231.893C141.428 227.409 134.732 205.78 134.732 205.78L155.897 196.73Z" fill="#E06A58"/>
<path d="M130.99 158.245L135.164 148.212C135.164 148.212 146.486 153.538 150.221 160.115C154.216 167.146 159.103 204.528 159.103 204.528C159.103 204.528 139.114 209.139 135.439 207.18C131.764 205.221 130.99 158.245 130.99 158.245Z" fill="#71CED3"/>
<path d="M99.2019 111.679C96.2782 110.606 93.1835 109.668 90.0516 109.906C86.9196 110.144 83.7207 111.805 82.6569 114.561C81.8981 116.513 82.2478 118.814 81.05 120.572C79.9044 122.255 77.628 122.955 75.5003 123.097C73.3653 123.246 71.2153 122.963 69.0951 123.238C62.5486 124.11 57.8767 131.23 60.0267 137.062C60.8822 139.386 62.6378 141.606 62.2361 144.026C61.8121 146.618 59.0967 148.324 57.9809 150.73C56.5004 153.932 58.271 157.813 61.1946 159.995C64.1183 162.17 67.9197 162.997 71.6096 163.548C76.6906 164.308 81.9353 164.665 86.9568 163.593C91.9783 162.52 96.7767 159.869 99.373 155.728C100.526 153.895 101.225 151.825 102.564 150.104C105.332 146.551 110.234 145.173 114.095 142.656C118.313 139.893 121.408 134.515 118.923 130.307C116.528 126.262 110.294 125.361 107.794 121.376C106.76 119.73 106.515 117.771 105.845 115.976C105.161 114.174 103.524 113.265 99.2019 111.679Z" fill="#0A2240"/>
<path d="M116.24 161.291C116.976 162.14 117.847 163.071 119.052 163.153C120.324 163.243 121.388 162.342 122.206 161.47C126.431 156.994 129.221 151.497 130.352 145.829C129.303 145.233 128.291 144.659 127.376 144.123C126.528 143.617 125.888 142.909 125.524 142.082C125.271 141.472 125.182 140.831 125.249 140.161C125.844 134.56 126.372 131.439 128.336 125.756C119.007 123.648 110.206 121.145 105.148 116.915C104.53 119.522 103.801 124.624 102.246 129.681C100.587 135.036 97.9985 140.332 93.6094 142.611C102.224 147.706 109.909 154.037 116.24 161.291Z" fill="#F9A07B"/>
<path d="M125.248 140.168C125.181 140.839 125.271 141.487 125.524 142.09C120.004 148.793 107.662 140.034 102.246 129.689C103.801 124.631 104.53 119.529 105.147 116.922C110.199 121.153 119.007 123.663 128.336 125.763C126.372 131.446 125.843 134.56 125.248 140.168Z" fill="#E06A58"/>
<path d="M140.617 221.205C139.397 229.294 148.116 238.001 148.332 242.321C129.815 242.321 91.0268 243.453 71.2755 240.764C70.3753 235.774 80.1282 224.549 80.1282 213.466C80.1282 211.999 80.0687 210.39 79.9497 208.662C79.6372 203.716 78.9082 197.832 78.0973 191.799C75.8953 175.614 72.9642 158.305 75.129 154.715C79.3694 147.721 89.286 142.969 94.2033 140.928C95.892 140.228 96.9931 139.848 97.0749 139.803C103.242 150.335 115.792 159.318 120.531 158.915C121.848 158.811 125.753 157.448 128.335 144.436C129.339 145.01 130.343 145.538 131.34 146.052C136.243 148.607 140.84 150.715 142.164 154C145.661 162.647 149.09 184.448 148.332 192.201C147.565 200.022 144.426 205.996 142.224 213.846C141.711 215.686 141.242 217.637 140.862 219.738C140.766 220.207 140.691 220.698 140.617 221.205Z" fill="#8AE5EB"/>
<path d="M148.332 242.321C129.815 242.321 91.0268 243.453 71.2755 240.764C70.3753 235.774 80.1282 224.549 80.1282 213.466C80.1282 211.999 80.0687 210.39 79.9497 208.662C79.6372 203.716 78.9082 197.832 78.0973 191.799C81.6012 195.501 86.712 179.86 88.9735 184.44C101.211 209.169 110.86 215.671 127.628 215.671C132.627 215.671 137.24 214.978 142.224 213.846C141.711 215.686 141.242 217.637 140.862 219.738C140.773 220.214 140.691 220.706 140.617 221.212C139.397 229.286 148.116 237.993 148.332 242.321Z" fill="#71CED3"/>
<path d="M131.34 146.052C130.544 151.84 128.186 159.638 121.327 161.694C112.057 164.472 98.6444 147.132 94.2031 140.928C95.8918 140.228 96.9929 139.848 97.0747 139.803C103.242 150.335 115.792 159.318 120.531 158.915C121.847 158.811 125.753 157.448 128.335 144.436C129.339 145.002 130.343 145.531 131.34 146.052Z" fill="#FCE172"/>
<path d="M135.149 233.614L135.082 240.071L250.391 240.756L250.629 233.435L135.149 233.614Z" fill="#325F73"/>
<path d="M300.368 176.002L297.801 173.395L213.812 172.844L171.676 233.852L173.878 235.625L300.368 176.002Z" fill="#325F73"/>
<path d="M215.435 175.1L173.879 235.625L253.256 236.019L300.369 176.002L215.435 175.1Z" fill="#0B2D50"/>
<path d="M235.49 213.734C240.592 213.734 244.729 211.663 244.729 209.109C244.729 206.554 240.592 204.484 235.49 204.484C230.387 204.484 226.25 206.554 226.25 209.109C226.25 211.663 230.387 213.734 235.49 213.734Z" fill="#3C738C"/>
<path d="M153.644 96.4098C152.781 102.532 150.051 109.28 146.071 116.736C144.673 110.628 143.78 103.188 142.545 95.7469C141.288 88.2913 139.688 80.8356 136.913 74.7429C136.288 73.3948 135.611 72.1063 134.875 70.9146C136.519 70.7581 138.185 70.9146 139.77 71.354C142.247 72.0169 144.568 73.298 146.465 75.0111C149.62 77.8191 151.732 81.6475 152.99 85.6844C154.024 89.0361 154.21 92.5963 153.644 96.4098Z" fill="#0B2D50"/>
<path d="M148.971 102.741C148.927 103.947 148.845 105.176 148.733 106.398C147.037 126.21 138.727 139.803 126.014 139.803C108.063 139.803 96.4277 119.648 96.4277 99.9031C96.4277 80.1578 108.345 66.3264 122.294 67.9576C130.336 68.8812 136.213 71.5551 140.386 75.4729C143.146 78.0798 145.14 81.2304 146.501 84.8129C148.056 88.8275 148.808 93.371 148.964 98.2644C148.964 98.2793 148.979 98.2942 148.979 98.3091C149.038 99.7541 149.023 101.229 148.979 102.741H148.971Z" fill="#F9A07B"/>
<path d="M148.972 102.741C148.436 100.827 147.64 98.9571 146.554 97.2813C135.968 102.823 123.351 104.96 111.388 102.934C109.112 104.834 106.888 106.703 104.648 108.573C104.693 99.5604 104.82 93.4603 108.331 89.0957C111.626 84.9992 117.124 83.4574 122.332 82.787C128.194 82.0199 134.153 82.0497 140 82.8988C142.239 83.2116 144.56 83.6957 146.509 84.8278C148.064 88.8424 148.815 93.3859 148.972 98.2793C148.972 98.2942 148.987 98.3091 148.987 98.324C149.039 99.7541 149.024 101.229 148.972 102.741Z" fill="#E06A58"/>
<path d="M151.559 90.5406C149.097 92.6261 146.01 94.3541 142.543 95.7544C132.679 99.7392 119.861 101.058 109.87 100.573C104.96 111.373 102.973 115.246 101.716 124.668C96.9179 120.162 93.0123 111.91 91.8518 105.422C90.7061 98.9571 90.8177 92.1718 92.618 85.8185C95.4524 75.8006 102.602 70.4379 107.556 67.831C108.791 67.1532 109.907 66.684 110.77 66.3413C117.101 63.8909 124.235 64.1143 130.729 66.103C134.271 67.2053 137.254 69.0674 139.761 71.3615C144.827 75.9421 147.959 82.1465 149.982 86.7942C150.622 88.2168 151.135 89.5053 151.559 90.5406Z" fill="#0B2D50"/>
<path d="M153.644 96.4098C153.235 94.2424 152.625 92.142 151.762 90.1161C151.278 88.9691 150.683 87.8593 149.991 86.7867C147.737 83.2414 144.456 80.3217 140.491 79.0331C139.36 77.4467 138.17 76.0166 136.92 74.7504C132.419 70.1697 127.138 67.548 121.543 66.6318C116.886 65.8796 112.043 66.3041 107.572 67.8235C108.807 67.1458 109.923 66.6765 110.786 66.3339C117.117 63.8834 124.251 64.1069 130.746 66.0956C134.287 67.1979 137.27 69.06 139.777 71.354C142.254 72.0169 144.575 73.298 146.472 75.0111C149.626 77.8191 151.739 81.6474 152.996 85.6844C154.023 89.0361 154.209 92.5963 153.644 96.4098Z" fill="#225570"/>
<path d="M115.592 108.558C118.91 106.659 122.354 105.802 127.182 107.567" stroke="#0B2D50" stroke-width="2" stroke-miterlimit="10" stroke-linecap="round"/>
<path d="M138.311 108.424C141.152 106.301 145.363 106.085 147.558 108.424" stroke="#0B2D50" stroke-width="2" stroke-miterlimit="10" stroke-linecap="round"/>
<path d="M134.881 119.254C135.171 120.758 135.015 124.087 134.301 125.585" stroke="#CC454E" stroke-width="2" stroke-miterlimit="10" stroke-linecap="round"/>
<path d="M123.67 120.266C124.426 120.266 125.038 119.299 125.038 118.107C125.038 116.914 124.426 115.947 123.67 115.947C122.914 115.947 122.301 116.914 122.301 118.107C122.301 119.299 122.914 120.266 123.67 120.266Z" fill="#262D40"/>
<path d="M141.562 119.261C142.318 119.261 142.931 118.294 142.931 117.101C142.931 115.908 142.318 114.941 141.562 114.941C140.806 114.941 140.193 115.908 140.193 117.101C140.193 118.294 140.806 119.261 141.562 119.261Z" fill="#262D40"/>
<path d="M133.185 128.527C133.185 128.527 132.917 129.048 132.404 129.756C131.601 130.836 130.232 132.325 128.365 132.906C127.576 133.159 126.72 133.249 125.768 133.077C122.971 132.578 122.235 129.994 122.101 128.005C122.071 127.618 122.071 127.26 122.078 126.933C122.093 126.128 122.183 125.592 122.183 125.592C126.639 128.05 133.193 128.527 133.193 128.527H133.185Z" fill="#CC454E"/>
<path d="M133.185 128.527C133.185 128.527 132.917 129.048 132.403 129.756C130.127 129.726 125.47 128.556 122.07 126.933C122.085 126.128 122.174 125.592 122.174 125.592C126.631 128.05 133.185 128.527 133.185 128.527Z" fill="white"/>
<path d="M128.358 132.899C127.569 133.152 126.714 133.241 125.761 133.07C122.964 132.571 122.228 129.986 122.094 127.998C123.448 128.162 124.757 128.683 125.843 129.51C126.981 130.381 127.852 131.565 128.358 132.899Z" fill="#E8729B"/>
<path d="M135.081 216.371L134.62 228.281C134.62 228.281 91.5988 241.188 84.4943 237.107C81.0276 235.111 77.7915 224.132 75.3738 213.414C72.8444 202.152 71.2227 191.189 71.2227 191.189L96.4418 186.243C96.4418 186.243 96.4567 201.638 97.3122 210.539C97.6172 213.853 98.0561 216.267 98.6438 216.661C100.868 218.129 135.081 216.371 135.081 216.371Z" fill="#F9A07B"/>
<path d="M97.3122 210.524C92.7296 212.014 83.8843 214.315 75.3738 213.407C72.8444 202.145 71.2227 191.181 71.2227 191.181L96.4418 186.235C96.4418 186.235 96.4567 201.623 97.3122 210.524Z" fill="#E06A58"/>
<path d="M133.854 216.49C140.252 215.12 151.084 211.828 155.577 210.695C158.769 209.891 167.078 214.196 169.273 218.255C170.232 220.028 171.14 230.068 167.815 229.033C166.148 228.512 166.424 224.207 165.903 222.449C165.479 221.019 164.125 219.633 162.064 218.442C163.44 221.875 163.388 224.869 163.24 228.579C163.21 229.398 163.158 230.254 162.763 230.962C162.362 231.67 161.499 232.176 160.755 231.863C159.996 231.55 159.736 230.605 159.565 229.778C158.977 226.918 158.382 224.058 158.144 220.825C158.203 224.005 158.144 227.193 157.935 230.366C157.787 232.794 156.581 234.128 155.101 233.703C154.439 233.517 154.171 232.906 153.888 232.102C153.442 233.658 152.326 235.379 150.883 234.723C150.005 234.329 149.462 231.156 149.618 227.893C146.851 229.614 143.726 230.344 140.126 230.508C136.897 230.657 133.594 230.053 131.652 227.856C131.846 224.423 132.977 219.343 133.854 216.49Z" fill="#F9A07B"/>
<path d="M153.955 231.61C154.171 229.033 153.955 226.419 153.293 223.931" stroke="#CC454E" stroke-miterlimit="10" stroke-linecap="round"/>
<path d="M93.6092 161.262C91.7792 156.1 85.0764 145.538 85.0764 145.538C85.0764 145.538 74.8474 149.799 71.217 157.031C65.0722 169.276 68.1966 204.431 68.1966 204.431C76.4766 207.902 93.0959 207.954 100.171 206.956C100.171 206.956 97.2768 171.577 93.6092 161.262Z" fill="#8AE5EB"/>
<path d="M94.9102 163.422C97.6999 176.791 99.1952 189.259 99.6713 201.475" stroke="#F2AE30" stroke-miterlimit="10" stroke-linecap="round"/>
<path d="M313.849 238.634H20.5332V246H313.849V238.634Z" fill="#0B2D50"/>
</g>
<defs>
<clipPath id="clip0_2487_3649">
<rect width="332" height="246" fill="white"/>
</clipPath>
</defs>
</svg>
