<svg width="332" height="246" viewBox="0 0 332 246" fill="none" xmlns="http://www.w3.org/2000/svg">
<g clip-path="url(#clip0_2487_3721)">
<path d="M300.302 241.851C335.631 214.956 351.365 140.377 294 103.806C256.023 79.5992 232.403 93.4082 189.68 77.3945C137.523 57.8504 129.749 -1.19916 66.3065 27.8564C32.6959 43.2444 9.39608 86.6154 5.29704 135.908C1.27983 184.18 18.3678 217.302 53.2878 239.967C135.291 243.46 217.458 242.827 300.302 241.851Z" fill="#DFF3FC"/>
<path d="M291.092 96.0991C290.485 63.171 253.826 40.2362 220.421 35.6059C187.024 30.962 153.026 41.6919 122.499 56.352C109.331 62.6724 96.0512 70.1601 87.661 81.9104C79.2708 93.6607 77.1415 110.731 86.375 121.585C94.52 131.157 108.715 133.374 121.579 133.017C134.443 132.661 147.61 130.397 160.001 133.58C171.764 136.598 181.566 144.186 192.473 149.353C212.625 158.878 237.535 159.603 257.694 149.479C277.863 139.353 291.592 124.092 291.082 96.102L291.092 96.0991Z" fill="#DFF3FC"/>
<g clip-path="url(#clip1_2487_3721)">
<path d="M178.023 81.3799C178.023 81.3799 178.339 92.725 179.215 97.96C180.092 103.187 184.694 106.041 184.694 106.041C184.694 106.041 174.802 115.873 166.015 117.134C157.228 118.403 147.391 105.245 147.391 105.245C147.391 105.245 151.993 104.133 152.625 98.2675C153.257 92.4018 152.775 82.5625 152.775 82.5625L178.023 81.372V81.3799Z" fill="#FFB0A0"/>
<path d="M178.38 89.193C178.127 85.0618 178.025 81.3799 178.025 81.3799L152.777 82.5704C152.777 82.5704 153.243 92.1731 152.643 98.0546C158.682 92.6225 164.517 98.0546 173.201 93.7657C174.685 93.0246 177.741 90.5963 178.372 89.193H178.38Z" fill="#F99585"/>
<path d="M143.895 41.471C143.895 41.471 144.526 55.7411 143.468 62.6081C142.41 69.475 147.7 82.5783 150.029 84.9041C152.358 87.2299 159.55 90.1864 164.208 91.5582C168.866 92.93 176.698 87.3323 179.556 84.7937C182.414 82.255 185.485 66.9364 185.69 63.972C185.904 61.0155 183.046 48.1172 183.575 40.6195C184.104 33.1218 168.756 31.3164 160.506 32.5857C152.247 33.855 143.8 38.7195 143.895 41.4631V41.471Z" fill="#FFB0A0"/>
<path d="M171.14 61.7014C171.14 61.7014 170.09 60.6055 170.367 58.6187C170.643 56.632 171.204 55.0079 174.654 55.4415C178.104 55.8751 180.212 57.3888 179.517 62.679C178.814 61.7881 176.762 61.5122 175.348 61.3308C173.943 61.1495 171.14 61.7093 171.14 61.7093V61.7014Z" fill="#F7A192"/>
<path d="M159.02 61.7014C159.02 61.7014 160.07 60.6055 159.794 58.6187C159.518 56.632 158.957 55.0079 155.507 55.4415C152.057 55.8751 149.949 57.3888 150.644 62.679C151.346 61.7881 153.399 61.5122 154.812 61.3308C156.218 61.1495 159.02 61.7093 159.02 61.7093V61.7014Z" fill="#F7A192"/>
<path d="M153.637 84.9041C151.308 82.5783 145.347 69.341 147.076 62.6081C150.068 50.9791 148.568 46.5168 148.568 46.5168C148.474 43.7731 155.855 33.8629 164.113 32.5936C165.203 32.428 166.419 32.3176 167.698 32.2625C165.1 32.1521 162.582 32.2782 160.513 32.5936C152.255 33.8629 143.808 38.7274 143.902 41.471C143.902 41.471 144.534 55.7411 143.476 62.6081C142.418 69.475 147.708 82.5783 150.037 84.9041C152.366 87.2299 159.558 90.1864 164.216 91.5582C165.266 91.8657 166.474 91.8184 167.753 91.5345C163.095 90.1548 155.958 87.2141 153.637 84.8962V84.9041Z" fill="#F7A192"/>
<path d="M186.014 62.6475C186.014 62.6475 184.538 58.9578 182.864 55.3942C181.198 51.8306 180.243 47.8649 180.006 46.5956C172.624 46.3591 168.337 45.5628 161.437 49.5285C154.537 53.4941 149.453 48.8977 149.453 48.8977C149.453 56.5847 144.163 63.5068 144.163 63.5068C144.163 63.5068 141.313 54.046 141.731 50.0015C142.15 45.957 143.974 34.8642 151.197 32.7197C158.421 30.5832 170.722 30.5043 175.403 32.7197C180.085 34.9351 184.846 40.0124 184.925 42.7088C185.004 45.4051 186.006 62.6475 186.006 62.6475H186.014Z" fill="#F7A192"/>
<path d="M144.163 63.5068C144.163 63.3492 143.002 59.754 140.776 59.5964C138.558 59.4387 137.389 62.8761 138.392 66.9443C139.394 71.0124 141.976 74.1266 143.334 74.237C144.692 74.3395 145.426 71.2805 145.426 71.2805L144.155 63.5147L144.163 63.5068Z" fill="#F7A192"/>
<path d="M141.368 71.7456C141.368 71.7456 141.171 71.1386 140.389 70.2398C139.607 69.341 139.355 66.5028 139.323 64.8865C139.292 63.2703 140.05 61.6541 140.5 61.2205C140.95 60.7868 142.789 63.4832 142.931 64.311C143.073 65.1388 143.602 66.5028 142.931 67.7563C142.26 69.0099 142.536 69.4435 143.073 69.9087C143.602 70.3738 143.215 71.1622 142.931 71.5643C142.647 71.9664 142.252 71.2411 141.779 70.4132C141.305 69.5854 142.158 67.5671 142.363 67.2517C142.568 66.9285 140.973 66.1795 140.413 68.8364C140.357 67.4331 141.392 65.0363 142.702 66.5028C142.284 63.9483 141.55 62.813 141.005 62.2848C140.468 61.7566 140.089 63.4595 139.884 65.1309C139.678 66.8102 139.813 68.9626 140.334 69.5145C140.855 70.0663 141.21 71.0676 141.36 71.7378L141.368 71.7456Z" fill="#ED867C"/>
<path d="M185.302 63.5068C185.302 63.3492 186.463 59.754 188.689 59.5964C190.908 59.4387 192.076 62.8761 191.073 66.9443C190.071 71.0124 187.489 74.1266 186.131 74.237C184.773 74.3395 184.039 71.2805 184.039 71.2805L185.31 63.5147L185.302 63.5068Z" fill="#FFB0A0"/>
<path d="M188.216 71.7456C188.216 71.7456 188.413 71.1386 189.195 70.2398C189.977 69.341 190.229 66.5028 190.261 64.8865C190.292 63.2703 189.535 61.6541 189.085 61.2205C188.635 60.7868 186.795 63.4832 186.653 64.311C186.511 65.1388 185.982 66.5028 186.653 67.7563C187.324 69.0099 187.048 69.4435 186.511 69.9087C185.982 70.3738 186.369 71.1622 186.653 71.5643C186.937 71.9664 187.332 71.2411 187.806 70.4132C188.279 69.5854 187.427 67.5671 187.221 67.2517C187.016 66.9285 188.611 66.1795 189.171 68.8364C189.227 67.4331 188.192 65.0363 186.882 66.5028C187.3 63.9483 188.034 62.813 188.579 62.2848C189.116 61.7566 189.495 63.4595 189.7 65.1309C189.906 66.8102 189.771 68.9626 189.25 69.5145C188.729 70.0663 188.374 71.0676 188.224 71.7378L188.216 71.7456Z" fill="#F99585"/>
<path d="M146.965 43.6943C146.965 44.0096 146.12 60.5503 144.873 67.8588C144.376 62.3794 142.086 59.9117 140.223 59.6358C139.583 56.5058 135.96 39.4685 144.107 34.5015C143.365 28.7935 155.113 23.5112 167.389 24.0394C179.666 24.5676 186.543 31.8604 187.916 41.1556C189.29 50.4588 188.69 59.5964 188.69 59.5964C188.69 59.5964 186.25 61.0549 185.003 68.4738C186.006 59.3914 183.148 55 182.414 52.0435C181.679 49.087 180.511 43.1661 180.511 43.1661C178.924 40.9506 169.189 39.2556 161.776 42.6378C154.371 46.0201 146.957 43.6943 146.957 43.6943H146.965Z" fill="#0E004D"/>
<path d="M146.042 40.9822C146.042 40.9822 147.818 44.9715 154.584 44.601C161.358 44.2304 169.766 39.6261 176.54 44.6246C172.569 43.4341 167.919 42.9611 159.4 46.3985C150.881 49.8359 146.279 45.6574 145.434 43.0715C144.589 40.4855 146.042 40.9822 146.042 40.9822Z" fill="#0E004D"/>
<path d="M183.463 45.5234C183.463 45.5234 174.952 38.9166 165.999 41.6129C157.046 44.3092 150.802 48.0857 145.307 41.1793C149.759 44.2619 156.052 43.8362 161.554 40.6116C167.057 37.3871 178.963 36.0152 183.463 45.5234Z" fill="#201668"/>
<path d="M144.463 37.7576C144.463 37.7576 148.695 42.8822 153.511 42.1411C158.326 41.4 161.713 37.6472 167.216 37.7576C165.471 37.0165 159.408 37.5999 156.037 39.6182C152.666 41.6366 146.816 40.0124 144.463 37.7576Z" fill="#201668"/>
<path d="M171.251 56.1826C171.251 56.1826 174.741 55.1892 177.085 56.695C179.43 58.2009 179.706 58.9104 180.022 58.4768C180.338 58.0432 178.672 54.9921 175.641 54.117C172.609 53.2418 170.856 54.1958 170.359 54.929C169.861 55.6622 170.398 56.2378 171.251 56.1747V56.1826Z" fill="#0E004D"/>
<path d="M158.87 56.1826C158.87 56.1826 155.38 55.1892 153.036 56.695C150.691 58.2009 150.414 58.9104 150.099 58.4768C149.783 58.0432 151.449 54.9921 154.48 54.117C157.512 53.2418 159.265 54.1958 159.762 54.929C160.259 55.6622 159.723 56.2378 158.87 56.1747V56.1826Z" fill="#0E004D"/>
<path d="M171.139 61.7014C171.139 61.7014 172.465 59.4387 175.41 59.7619C178.355 60.0852 179.31 62.34 179.31 62.34C179.31 62.34 177.257 62.4425 175.41 62.34C173.555 62.2375 171.139 61.7093 171.139 61.7093V61.7014Z" fill="white"/>
<mask id="mask0_2487_3721" style="mask-type:luminance" maskUnits="userSpaceOnUse" x="171" y="59" width="9" height="4">
<path d="M171.139 61.7014C171.139 61.7014 172.465 59.4387 175.41 59.7619C178.355 60.0852 179.31 62.34 179.31 62.34C179.31 62.34 177.257 62.4425 175.41 62.34C173.555 62.2375 171.139 61.7093 171.139 61.7093V61.7014Z" fill="white"/>
</mask>
<g mask="url(#mask0_2487_3721)">
<path d="M177.099 60.842C177.154 61.7723 176.443 62.5686 175.512 62.6238C174.58 62.679 173.783 61.9694 173.728 61.0391C173.672 60.1088 174.383 59.3125 175.315 59.2573C176.246 59.2022 177.044 59.9117 177.099 60.842Z" fill="#0E004D"/>
<path d="M176.222 60.8972C176.246 61.3466 175.906 61.725 175.464 61.7566C175.014 61.7802 174.635 61.4412 174.604 60.9997C174.572 60.5582 174.919 60.1719 175.361 60.1404C175.811 60.1167 176.19 60.4557 176.222 60.8972Z" fill="#05002D"/>
<path d="M176.459 60.5267C176.467 60.7238 176.325 60.8893 176.127 60.9051C175.93 60.913 175.764 60.7711 175.748 60.574C175.74 60.3769 175.883 60.2113 176.08 60.1955C176.277 60.1877 176.443 60.3296 176.459 60.5267Z" fill="white"/>
</g>
<path d="M171.139 61.7014C171.526 60.9366 172.157 60.2586 172.962 59.8408C173.76 59.4071 174.739 59.2889 175.623 59.4781C176.484 59.6437 177.36 59.9354 178.07 60.503C178.426 60.779 178.734 61.118 178.97 61.4885C179.192 61.867 179.381 62.2612 179.515 62.6711C179.018 61.9694 178.481 61.3151 177.786 60.9051C177.099 60.4873 176.31 60.2507 175.505 60.1009C174.715 59.9275 173.918 59.9984 173.168 60.2902C172.418 60.5819 171.723 61.0786 171.139 61.7014Z" fill="#0E004D"/>
<path d="M171.479 60.7868C171.818 60.0615 172.418 59.4702 173.136 59.0839C173.855 58.6818 174.708 58.5714 175.513 58.6187C176.326 58.6818 177.131 58.9341 177.794 59.415C178.45 59.8881 178.995 60.5503 179.216 61.3151C178.876 60.5976 178.308 60.0221 177.66 59.6121C177.005 59.21 176.255 58.9814 175.489 58.9262C174.723 58.8789 173.942 58.9735 173.247 59.2968C172.552 59.6121 171.929 60.1246 171.479 60.779V60.7868Z" fill="#DD857A"/>
<path d="M159.029 61.7014C159.029 61.7014 157.702 59.4387 154.758 59.7619C151.813 60.0852 150.857 62.34 150.857 62.34C150.857 62.34 152.91 62.4425 154.758 62.34C156.613 62.2375 159.029 61.7093 159.029 61.7093V61.7014Z" fill="white"/>
<mask id="mask1_2487_3721" style="mask-type:luminance" maskUnits="userSpaceOnUse" x="150" y="59" width="10" height="4">
<path d="M159.029 61.7014C159.029 61.7014 157.702 59.4387 154.758 59.7619C151.813 60.0852 150.857 62.34 150.857 62.34C150.857 62.34 152.91 62.4425 154.758 62.34C156.613 62.2375 159.029 61.7093 159.029 61.7093V61.7014Z" fill="white"/>
</mask>
<g mask="url(#mask1_2487_3721)">
<path d="M153.067 60.842C153.012 61.7723 153.723 62.5686 154.654 62.6238C155.586 62.679 156.383 61.9694 156.439 61.0391C156.494 60.1088 155.783 59.3125 154.852 59.2573C153.92 59.2022 153.123 59.9117 153.067 60.842Z" fill="#0E004D"/>
<path d="M153.945 60.8972C153.921 61.3466 154.26 61.725 154.702 61.7566C155.152 61.7802 155.531 61.4412 155.563 60.9997C155.595 60.5582 155.247 60.1719 154.805 60.1404C154.355 60.1167 153.976 60.4557 153.945 60.8972Z" fill="#05002D"/>
<path d="M153.707 60.5267C153.699 60.7238 153.842 60.8893 154.039 60.9051C154.236 60.913 154.402 60.7711 154.418 60.574C154.426 60.3769 154.284 60.2113 154.086 60.1955C153.889 60.1877 153.723 60.3296 153.707 60.5267Z" fill="white"/>
</g>
<path d="M159.029 61.7014C158.642 60.9366 158.01 60.2586 157.205 59.8408C156.408 59.4071 155.429 59.2889 154.545 59.4781C153.684 59.6437 152.808 59.9354 152.097 60.503C151.742 60.779 151.434 61.118 151.197 61.4885C150.976 61.867 150.787 62.2612 150.652 62.6711C151.15 61.9694 151.687 61.3151 152.381 60.9051C153.068 60.4873 153.858 60.2507 154.663 60.1009C155.452 59.9275 156.25 59.9984 157 60.2902C157.75 60.5819 158.445 61.0786 159.029 61.7014Z" fill="#0E004D"/>
<path d="M158.69 60.7868C158.351 60.0615 157.751 59.4702 157.032 59.0839C156.314 58.6818 155.461 58.5714 154.656 58.6187C153.843 58.6818 153.037 58.9341 152.374 59.415C151.719 59.8881 151.174 60.5503 150.953 61.3151C151.293 60.5976 151.861 60.0221 152.508 59.6121C153.164 59.21 153.914 58.9814 154.68 58.9262C155.445 58.8789 156.227 58.9735 156.922 59.2968C157.616 59.6121 158.24 60.1246 158.69 60.779V60.7868Z" fill="#DD857A"/>
<path d="M162.029 81.9081C162.029 81.9081 164.65 84.3285 168.337 81.9081C166.79 85.0775 163.182 84.5651 162.029 81.9081Z" fill="#F7A192"/>
<path d="M160.853 56.5847C160.853 56.5847 163.316 59.6042 163.419 61.4885C163.521 63.3728 161.563 69.0256 161.461 70.3186C161.358 71.6116 164.634 72.9125 167.548 72.5735C163 73.4328 161.674 73.283 160.403 71.3751C159.132 69.4672 161.461 67.7563 162.787 62.1035C162.89 60.9918 160.853 56.5925 160.853 56.5925V56.5847Z" fill="#F99585"/>
<path d="M167.548 69.5302C167.548 70.3738 166.348 71.0597 164.879 71.0597C163.411 71.0597 162.211 70.3738 162.211 69.5302C162.211 68.6866 163.411 68.4738 164.879 68.4738C166.348 68.4738 167.548 68.6866 167.548 69.5302Z" fill="#FFBBB0"/>
<path d="M159.146 76.1843C159.146 76.1843 167.105 77.2093 171.447 76.1843C169.899 81.711 161.989 84.3758 159.146 76.1843Z" fill="#752727"/>
<path d="M169.071 79.8425C165.139 77.9504 162.487 79.2906 161.508 79.9766C163.845 82.0658 166.916 81.6401 169.071 79.8425Z" fill="#B23030"/>
<path d="M171.33 76.2159C167.429 77.091 160.798 76.3814 159.416 76.2159C159.605 76.4524 160.063 76.9333 160.845 77.1698C161.911 77.4931 166.9 77.769 168.827 77.4064C170.311 77.1304 171.061 76.4918 171.33 76.2159Z" fill="white"/>
<path d="M178.404 67.5119C176.777 67.5119 174.606 67.4331 171.709 67.2281C169.245 67.0546 168.851 65.4069 168.795 63.8222C168.748 62.5292 168.756 61.3308 168.764 60.5424C168.764 60.235 168.764 59.9827 168.764 59.8171C168.756 59.1233 168.953 58.5636 169.364 58.1536C170.011 57.4992 170.911 57.4756 171.014 57.4756H171.022C171.448 57.4834 181.388 57.7515 183.259 58.3113C183.583 58.4689 183.788 58.7764 183.93 59.2731C184.475 61.1653 184.088 65.5882 183.44 66.6368C183.275 66.9127 182.896 67.5198 178.404 67.5198V67.5119ZM171.014 58.1063C170.959 58.1063 170.272 58.1299 169.814 58.5951C169.53 58.8868 169.387 59.2889 169.395 59.8092C169.395 59.9748 169.395 60.2271 169.395 60.5424C169.395 61.3308 169.38 62.5213 169.427 63.7985C169.49 65.47 169.893 66.4633 171.756 66.5974C181.751 67.3069 182.793 66.4712 182.904 66.2978C183.464 65.3832 183.812 61.1337 183.322 59.4387C183.196 58.9893 183.062 58.9026 183.03 58.8947C181.309 58.3901 171.298 58.1142 171.014 58.1063Z" fill="#0E004D"/>
<path d="M152.176 67.5119C147.684 67.5119 147.305 66.9048 147.139 66.6289C146.492 65.5803 146.105 61.1574 146.65 59.2652C146.792 58.7685 146.997 58.4611 147.266 58.327C149.184 57.7515 159.132 57.4834 159.558 57.4756H159.566C159.668 57.4756 160.569 57.4992 161.216 58.1536C161.626 58.5636 161.824 59.1233 161.816 59.8171C161.816 59.9827 161.816 60.235 161.816 60.5424C161.816 61.3308 161.832 62.5292 161.784 63.8143C161.729 65.399 161.334 67.0468 158.871 67.2202C155.974 67.4252 153.803 67.504 152.176 67.504V67.5119ZM147.502 58.9104C147.502 58.9104 147.384 59.0051 147.266 59.4387C146.776 61.1337 147.123 65.3832 147.684 66.2978C147.794 66.4712 148.837 67.3069 158.832 66.5974C160.695 66.4633 161.097 65.47 161.161 63.7985C161.208 62.5213 161.2 61.3387 161.192 60.5503C161.192 60.2271 161.192 59.9748 161.192 59.8092C161.192 59.2968 161.058 58.8868 160.774 58.5951C160.316 58.1299 159.629 58.1063 159.574 58.1063C159.282 58.1063 149.279 58.3901 147.502 58.9104Z" fill="#0E004D"/>
<path d="M168.937 59.5254C168.937 59.5254 164.942 57.7357 161.587 59.5175L161.287 58.9578C164.919 57.0262 169.024 58.871 169.198 58.9499L168.929 59.5254H168.937Z" fill="#0E004D"/>
<path d="M151.307 102.84L146.018 110.748C146.018 110.748 152.365 173.733 168.345 181.129C185.169 141.819 187.742 108.635 187.742 108.635L181.995 104.409C181.995 104.409 173.374 115.928 165.518 114.871C157.655 113.815 151.307 102.84 151.307 102.84Z" fill="#0CACC6"/>
<path d="M164.373 114.871L157.204 120.343C157.204 120.343 161.255 128.668 161.491 128.826C161.728 128.984 153.715 165.763 153.715 165.763L164.381 174.325L173.879 163.705L168.636 128.353L173.879 119.16L164.381 114.879L164.373 114.871Z" fill="#0E004D"/>
<path d="M110.506 126.303C110.506 126.303 137.594 106.648 150.723 102.84C149.452 126.934 165.747 166.244 165.747 166.244L167.974 326.873C167.974 326.873 142.047 329.411 122.152 326.873C102.256 324.334 108.604 301.935 108.604 301.935C108.604 301.935 117.494 225.429 116.649 198.797C115.804 172.164 110.514 126.303 110.514 126.303H110.506Z" fill="#F0F6F7"/>
<path d="M110.506 126.303C110.506 126.303 137.593 106.648 150.723 102.84C149.452 126.934 165.747 166.244 165.747 166.244L167.973 326.873C167.973 326.873 142.046 329.411 122.151 326.873L123.351 299.081C123.351 299.081 134.167 230.183 133.322 203.551C132.478 176.918 110.514 126.303 110.514 126.303H110.506Z" fill="white"/>
<path d="M221.572 126.303C221.572 126.303 194.485 106.648 181.355 102.84C182.626 126.934 163.789 166.244 163.789 166.244L166.015 326.873C166.015 326.873 190.04 329.411 209.935 326.873C229.83 324.334 223.483 301.935 223.483 301.935C223.483 301.935 214.593 225.429 215.438 198.797C216.283 172.164 221.572 126.303 221.572 126.303Z" fill="#F0F6F7"/>
<path d="M221.572 126.303C221.572 126.303 194.485 106.648 181.355 102.84C182.626 126.934 163.789 166.244 163.789 166.244L166.015 326.873C166.015 326.873 190.04 329.411 209.935 326.873L206.122 288.509C206.122 288.509 202.735 229.331 203.58 202.699C204.424 176.067 221.572 126.295 221.572 126.295V126.303Z" fill="white"/>
<path d="M179.051 96.8247C179.051 96.8247 176.549 108.635 165.519 114.028C160.309 112.545 152.374 100.648 152.658 96.8247C150.361 101.555 148.143 103.715 148.143 103.715C148.143 103.715 147.724 116.558 155.548 124.064C159.456 120.469 165.519 115.715 165.519 115.715C165.519 115.715 172.901 122.479 174.062 125.751C181.151 117.087 183.891 103.692 183.891 103.692L179.051 96.8168V96.8247Z" fill="#7FCBDD"/>
<path d="M181.087 99.726C181.087 99.726 187.687 103.81 189.124 106.01C190.561 108.209 193.538 118.143 194.114 127.336C189.401 128.921 183.053 132.2 183.053 132.2L193.316 133.683C193.316 133.683 179.611 160.047 161.516 175.105C164.839 162.073 170.721 149.112 176.121 129.93C181.521 110.748 181.095 99.726 181.095 99.726H181.087Z" fill="#F0F6F7"/>
<path d="M151.087 99.726C151.087 99.726 144.487 103.81 143.05 106.01C141.613 108.209 138.637 118.143 138.061 127.336C142.774 128.921 149.121 132.2 149.121 132.2L138.858 133.683C138.858 133.683 149.871 152.36 167.967 167.418C164.643 154.386 161.453 149.112 156.053 129.93C150.653 110.748 151.079 99.726 151.079 99.726H151.087Z" fill="#F0F6F7"/>
<path d="M131.04 244.603C131.04 244.603 132.035 247.141 136.78 249.357C141.517 251.572 143.988 252.731 146.372 256.366C137.641 258.731 125.277 262.941 125.277 262.941C125.277 262.941 121.993 259.188 120.406 255.704C118.819 252.219 131.04 244.611 131.04 244.611V244.603Z" fill="#FFB0A0"/>
<path d="M110.506 126.303C110.506 126.303 75.0019 186.222 71.1966 199.325C67.3833 212.428 120.319 258.889 120.319 258.889L133.48 244.358L97.6999 203.716L117.082 179.229C117.082 179.229 114.192 152.36 110.506 126.311V126.303Z" fill="#24B8D1"/>
<path d="M101.332 199.128L117.082 179.221C117.082 179.221 114.193 152.352 110.506 126.303C110.506 126.303 83.1023 172.559 73.8652 192.671C83.4892 190.574 93.8868 192.19 101.332 199.128Z" fill="#14B0C1"/>
<path d="M97.7089 203.708C97.7089 203.708 91.1561 197.693 81.2559 198.268C88.7719 196.581 93.2167 196.156 97.7089 203.708Z" fill="#14B0C1"/>
<path d="M104.846 199.112L116.041 186.45C116.041 186.45 120.557 144.594 110.507 126.303C110.507 126.303 87.0982 160.74 74.8926 182.224C86.2455 183.257 92.8852 187.751 101.514 194.997L104.846 199.12V199.112Z" fill="white"/>
<path d="M110.475 127.73C110.475 127.73 118.18 146.809 116.041 186.45C118.022 177.242 120.722 139.99 110.475 127.73Z" fill="#F0F6F7"/>
<path d="M200.959 244.603C200.959 244.603 199.964 247.141 195.219 249.357C190.482 251.572 188.011 252.731 185.627 256.366C194.359 258.731 206.722 262.941 206.722 262.941C206.722 262.941 210.007 259.188 211.593 255.704C213.18 252.219 200.959 244.611 200.959 244.611V244.603Z" fill="#FFB0A0"/>
<path d="M221.494 126.303C221.494 126.303 256.997 186.222 260.811 199.325C264.624 212.428 211.688 258.889 211.688 258.889L198.527 244.358L234.307 203.716L214.925 179.229C214.925 179.229 212.928 140.723 221.502 126.311L221.494 126.303Z" fill="#24B8D1"/>
<path d="M256.499 189.218C246.039 167.726 221.493 126.303 221.493 126.303C212.919 140.715 214.917 179.221 214.917 179.221L232.27 201.146C239.115 194.665 247.041 188.051 256.499 189.218Z" fill="#14B0C1"/>
<path d="M234.299 203.708C234.299 203.708 241.049 196.684 248.983 196.786C244.01 194.989 236.967 196.471 234.299 203.708Z" fill="#14B0C1"/>
<path d="M227.155 199.112L215.96 186.45C215.96 186.45 210.41 141.259 221.494 126.303C221.494 126.303 244.903 160.74 257.108 182.224C245.755 183.257 239.116 187.751 230.487 194.997L227.155 199.12V199.112Z" fill="white"/>
<path d="M221.525 127.73C221.525 127.73 213.819 146.809 215.959 186.45C213.977 177.242 211.277 139.99 221.525 127.73Z" fill="#F0F6F7"/>
<path d="M167.974 178.188C167.974 179.812 166.655 181.129 165.029 181.129C163.402 181.129 162.084 179.812 162.084 178.188C162.084 176.564 163.402 175.247 165.029 175.247C166.655 175.247 167.974 176.564 167.974 178.188Z" fill="#DAEDEF"/>
<path d="M167.974 206.815C167.974 208.439 166.655 209.755 165.029 209.755C163.402 209.755 162.084 208.439 162.084 206.815C162.084 205.191 163.402 203.874 165.029 203.874C166.655 203.874 167.974 205.191 167.974 206.815Z" fill="#DAEDEF"/>
<path d="M167.974 239.462C167.974 241.087 166.655 242.403 165.029 242.403C163.402 242.403 162.084 241.087 162.084 239.462C162.084 237.838 163.402 236.522 165.029 236.522C166.655 236.522 167.974 237.838 167.974 239.462Z" fill="#DAEDEF"/>
</g>
</g>
<defs>
<clipPath id="clip0_2487_3721">
<rect width="332" height="246" fill="white"/>
</clipPath>
<clipPath id="clip1_2487_3721">
<rect width="190" height="304" fill="white" transform="translate(71 24)"/>
</clipPath>
</defs>
</svg>
